# xmcd
#
# Track frame offsets:
#	150
#	17019
#	32862
#	48713
#	61541
#	79032
#	96482
#	114272
#	128014
#	144489
#	158111
#	175055
#
# Disc length: 2513 seconds
#
# Revision: 0
# Processed by: cddbd v1.5.2PL0 Copyright (c) Steve Scherf et al.
# Submitted via: audiograbber 1.83.01
#
DISCID=9409cf0c
DTITLE=Ulli Martin - Ein Traum wird wahr
DYEAR=1900
DGENRE=Schlager
TTITLE0=Du musst nicht weinen
TTITLE1=Nur ein Flirt
TTITLE2=Ein Traum wird wahr
TTITLE3=Schön war die Zeit in Ohio
TTITLE4=Zigeuner der Liebe
TTITLE5=Monika
TTITLE6=Ich lieb Dich so sehr
TTITLE7=Der schönste Tag
TTITLE8=Ich träume mit offenen Augen von Dir
TTITLE9=Ich rufe Dich
TTITLE10=Che sara
TTITLE11=So kann es hundert Jahre weitergeh´n
EXTD=
EXTT0=
EXTT1=
EXTT2=
EXTT3=
EXTT4=
EXTT5=
EXTT6=
EXTT7=
EXTT8=
EXTT9=
EXTT10=
EXTT11=
PLAYORDER=
